#!OML:ASF E:\emotionWalksFemale\Project 1\Capture day 1\Session 1\Female1.ASF
:FULLY-SPECIFIED
:DEGREES
255
root 8.71658 15.5588 22.0191 184.811 5.38947 -179.283
lowerback 9.12271 0.610849 1.20842
upperback -3.96012 1.01338 -0.0478677
thorax -9.3266 0.432507 -0.906463
lowerneck -8.06316 -1.1012 -5.59508
upperneck 7.65818 -1.32457 6.02412
head 3.67528 -0.50318 2.67874
rclavicle 1.8408e-015 9.56651e-016
rhumerus -46.1161 3.61591 -40.7274
rradius 29.6389
rwrist 34.0953
rhand -4.44358 -54.0924
rfingers 7.12502
rthumb 21.3279 -82.9388
lclavicle 1.8408e-015 9.56651e-016
lhumerus -43.991 16.1043 29.752
lradius 32.6129
lwrist -20.7002
lhand -2.14533 -29.5609
lfingers 7.12502
lthumb 23.534 -0.980708
rfemur -3.73453 21.2726 23.2667
rtibia 15.9674
rfoot -15.8346 -28.71
rtoes -4.38725
lfemur -7.63812 -21.1983 -22.5321
ltibia 22.5546
lfoot -23.0312 25.1159
ltoes -32.2692
256
root 8.71543 15.5577 22.0114 184.818 5.44636 -179.177
lowerback 9.18182 0.611671 1.30243
upperback -4.0726 1.03623 -0.0131895
thorax -9.48351 0.438881 -0.928705
lowerneck -8.07502 -1.0576 -5.57689
upperneck 7.89402 -1.27032 6.00954
head 3.74517 -0.474 2.67559
rclavicle 1.24264e-014 -1.25483e-015
rhumerus -46.227 3.60836 -40.7655
rradius 29.4391
rwrist 34.1733
rhand -4.50006 -53.8149
rfingers 7.12502
rthumb 21.2737 -82.6673
lclavicle 1.24264e-014 -1.25483e-015
lhumerus -44.4915 15.8376 29.9533
lradius 32.6734
lwrist -20.505
lhand -2.47747 -29.5802
lfingers 7.12502
lthumb 23.2154 -0.959448
rfemur -3.61048 21.4231 23.4036
rtibia 15.8024
rfoot -15.7102 -28.7381
rtoes -4.60328
lfemur -7.60483 -21.421 -22.4584
ltibia 22.6386
lfoot -23.2449 25.2665
ltoes -31.6206
257
root 8.71456 15.5582 22.0036 184.797 5.49926 -179.105
lowerback 9.24828 0.611578 1.37373
upperback -4.18194 1.05324 -5.92243e-006
thorax -9.64172 0.442819 -0.960206
lowerneck -7.95982 -1.02737 -5.52342
upperneck 7.9649 -1.23855 5.98676
head 3.74521 -0.458026 2.66212
rclavicle 1.38654e-014 1.45361e-015
rhumerus -46.6023 3.96005 -41.0624
rradius 29.6195
rwrist 33.8457
rhand -4.71956 -53.7927
rfingers 7.12502
rthumb 21.0628 -82.6687
lclavicle 1.38654e-014 1.45361e-015
lhumerus -45.033 15.7247 30.0852
lradius 32.7236
lwrist -20.4998
lhand -2.94042 -29.4131
lfingers 7.12502
lthumb 22.7711 -0.737018
rfemur -3.4703 21.5803 23.5136
rtibia 15.6722
rfoot -15.4791 -28.8387
rtoes -5.21954
lfemur -7.53931 -21.6018 -22.4341
ltibia 22.7031
lfoot -23.234 25.5393
ltoes -31.9312
258
root 8.71418 15.5585 21.9944 184.784 5.54595 -179.026
lowerback 9.21042 0.618566 1.45141
upperback -4.24852 1.07784 0.0141844
thorax -9.69107 0.45097 -0.99332
lowerneck -7.77713 -1.01852 -5.4656
upperneck 7.89957 -1.23647 5.97123
head 3.69463 -0.458261 2.64779
rclavicle 1.53882e-014 6.89534e-015
rhumerus -47.1165 4.26576 -41.3993
rradius 30.1056
rwrist 33.5766
rhand -4.71147 -54.1928
rfingers 7.12502
rthumb 21.0706 -83.0681
lclavicle 1.53882e-014 6.89534e-015
lhumerus -45.5763 15.8969 30.0841
lradius 32.7007
lwrist -20.8782
lhand -3.48385 -29.3981
lfingers 7.12502
lthumb 22.2495 -0.658872
rfemur -3.39019 21.7644 23.6224
rtibia 15.6373
rfoot -15.371 -28.9851
rtoes -5.69076
lfemur -7.47532 -21.7021 -22.3902
ltibia 22.712
lfoot -23.299 25.6597
ltoes -31.5549
259
root 8.71338 15.5583 21.9838 184.806 5.59179 -179.081
lowerback 9.07856 0.636623 1.37473
upperback -4.30108 1.09352 0.0115366
thorax -9.67161 0.464842 -0.954262
lowerneck -7.74404 -1.00993 -5.43752
upperneck 8.00505 -1.23017 5.96948
head 3.72052 -0.453264 2.64364
rclavicle -1.40781e-014 1.04362e-015
rhumerus -47.418 4.17507 -41.5169
rradius 30.2891
rwrist 33.6875
rhand -4.70524 -54.3191
rfingers 7.12502
rthumb 21.0766 -83.1937
lclavicle -1.40781e-014 1.04362e-015
lhumerus -46.1389 16.1684 30.1181
lradius 32.7146
lwrist -21.2997
lhand -3.80348 -29.4416
lfingers 7.12502
lthumb 21.9427 -0.666032
rfemur -3.40274 21.9182 23.5605
rtibia 15.6652
rfoot -15.5911 -29.1371
rtoes -5.28179
lfemur -7.43429 -21.9138 -22.4832
ltibia 22.6833
lfoot -23.5552 25.759
ltoes -30.726
260
root 8.71299 15.5561 21.9713 184.779 5.66499 -179.163
lowerback 8.9709 0.651147 1.23831
upperback -4.33851 1.09714 0.0192191
thorax -9.65133 0.476789 -0.868672
lowerneck -7.81003 -0.995337 -5.38242
upperneck 8.21387 -1.2131 5.91938
head 3.79309 -0.442567 2.62125
rclavicle -2.01833e-014 -3.90736e-015
rhumerus -47.5926 4.06785 -41.6465
rradius 30.3395
rwrist 33.5888
rhand -4.74706 -54.4388
rfingers 7.12502
rthumb 21.0364 -83.3178
lclavicle -2.01833e-014 -3.90736e-015
lhumerus -46.707 16.486 30.2144
lradius 32.6178
lwrist -21.6187
lhand -4.19966 -29.355
lfingers 7.12502
lthumb 21.5622 -0.535346
rfemur -3.3741 22.0697 23.4974
rtibia 15.7459
rfoot -15.7914 -29.3076
rtoes -5.12111
lfemur -7.29275 -22.1671 -22.6425
ltibia 22.6269
lfoot -23.7055 26.0145
ltoes -30.6714
